HIERARCHY
ROOT root
{
  OFFSET 0.0000 0.0000 0.0000
  CHANNELS 6 Xposition Yposition Zposition Zrotation Xrotation Yrotation
  JOINT lowerback
  {
    OFFSET 0.0000 0.0000 0.0000
    CHANNELS 3 Zrotation Xrotation Yrotation
    JOINT upperback
    {
      OFFSET -0.2975 11.0962 -0.4289
      CHANNELS 3 Zrotation Xrotation Yrotation
      JOINT thorax
      {
        OFFSET -0.0009 11.0405 -0.3169
        CHANNELS 3 Zrotation Xrotation Yrotation
        JOINT neck
        {
          OFFSET 0.1944 11.1642 0.0841
          CHANNELS 3 Zrotation Xrotation Yrotation
          JOINT head
          {
            OFFSET 1.6277 15.5530 -0.6089
            CHANNELS 3 Zrotation Xrotation Yrotation
            End Site
            {
                OFFSET 0.0000 0.0000 0.0000
            }
          }
        }
      }
      JOINT lshoulderjoint
      {
        OFFSET -0.0009 11.0405 -0.3169
        CHANNELS 3 Zrotation Xrotation Yrotation
        JOINT lhumerus
        {
          OFFSET 14.1669 18.7170 0.1105
          CHANNELS 3 Zrotation Xrotation Yrotation
          JOINT lradius
          {
            OFFSET 29.5186 0.0000 0.0000
            CHANNELS 3 Zrotation Xrotation Yrotation
            JOINT lhand
            {
              OFFSET 23.9354 0.0000 0.0000
              CHANNELS 3 Zrotation Xrotation Yrotation
              End Site
              {
                  OFFSET 0.0000 0.0000 0.0000
              }
            }
          }
        }
      }
      JOINT rshoulderjoint
      {
        OFFSET -0.0009 11.0405 -0.3169
        CHANNELS 3 Zrotation Xrotation Yrotation
        JOINT rhumerus
        {
          OFFSET -14.2042 18.2168 -0.2511
          CHANNELS 3 Zrotation Xrotation Yrotation
          JOINT rradius
          {
            OFFSET -29.7619 0.0000 0.0000
            CHANNELS 3 Zrotation Xrotation Yrotation
            JOINT rhand
            {
              OFFSET -25.1658 0.0000 0.0000
              CHANNELS 3 Zrotation Xrotation Yrotation
              End Site
              {
                  OFFSET -0.0000 0.0000 0.0000
              }
            }
          }
        }
      }
    }
  }
  JOINT rfemur
  {
    OFFSET -7.7032 -9.8555 2.1513
    CHANNELS 3 Zrotation Xrotation Yrotation
    JOINT rtibia
    {
      OFFSET -7.1353 -40.4666 0.0000
      CHANNELS 3 Zrotation Xrotation Yrotation
      JOINT rfoot
      {
        OFFSET -6.6645 -37.7961 -0.0000
        CHANNELS 3 Zrotation Xrotation Yrotation
        JOINT rtoes
        {
          OFFSET -3.4134 -6.6508 11.8768
          CHANNELS 3 Zrotation Xrotation Yrotation
          End Site
          {
              OFFSET 0.0000 -0.0000 0.0000
          }
        }
      }
    }
  }
  JOINT lfemur
  {
    OFFSET 8.5590 -9.8555 2.1513
    CHANNELS 3 Zrotation Xrotation Yrotation
    JOINT ltibia
    {
      OFFSET 7.2751 -41.2593 0.0000
      CHANNELS 3 Zrotation Xrotation Yrotation
      JOINT lfoot
      {
        OFFSET 6.5686 -37.2525 0.0000
        CHANNELS 3 Zrotation Xrotation Yrotation
        JOINT ltoes
        {
          OFFSET 3.2326 -4.1860 10.4122
          CHANNELS 3 Zrotation Xrotation Yrotation
          End Site
          {
              OFFSET -0.0000 0.0000 0.0000
          }
        }
      }
    }
  }
}
MOTION
Frames:	20
Frame Time:	0.008333
-154.3091 87.8591 -213.2825 -14.42 25.58 16.49 0.00 0.00 0.00 0.00 0.00 0.00 0.00 0.00 0.00 0.00 0.00 0.00 0.00 0.00 0.00 -0.00 0.00 0.00 0.00 0.00 -0.00 0.00 0.00 -0.00 0.00 0.00 0.00 0.00 0.00 -0.00 0.00 0.00 0.00 0.00 0.00 0.00 -0.00 0.00 0.00 10.11 -39.52 -11.24 5.81 50.40 -12.31 2.08 -41.17 6.95 0.00 0.00 -0.00 26.00 -66.66 29.68 -6.62 52.62 13.35 -1.35 -17.07 -6.07 -0.00 0.00 0.00 
-153.9931 87.7689 -212.8294 -14.50 25.36 15.88 2.39 -16.26 1.86 2.87 -5.88 1.89 1.15 10.63 0.92 -0.48 6.63 5.28 -2.26 -14.65 5.03 -85.80 0.65 -169.16 -15.27 -25.98 -173.77 0.00 -0.00 -54.88 23.10 21.93 10.06 93.66 -0.57 169.52 33.27 -46.95 -179.98 -0.00 -0.00 56.37 -21.84 -10.17 -28.83 10.57 -38.81 -10.53 5.70 50.08 -12.16 2.10 -41.21 6.98 0.00 -0.00 0.00 27.52 -66.20 31.23 -7.02 53.62 13.85 -1.49 -17.89 -6.40 -0.00 -0.00 -0.00 
-153.7287 87.6508 -212.4926 -14.69 25.49 15.66 2.30 -16.38 1.99 3.04 -5.79 2.05 1.47 10.82 0.98 -0.65 6.27 5.50 -2.23 -15.09 5.24 -85.50 0.71 -168.94 -15.12 -26.57 -173.59 0.00 -0.00 -54.93 23.10 21.99 9.89 93.68 -0.57 169.34 33.80 -47.40 -179.35 -0.00 -0.00 56.67 -21.60 -10.21 -28.63 10.76 -38.67 -10.18 5.67 49.98 -12.12 2.17 -41.25 7.09 0.00 -0.00 0.00 28.17 -66.30 31.50 -7.36 54.40 14.26 -1.48 -18.57 -6.26 -0.00 -0.00 -0.00 
-153.4650 87.5198 -212.2035 -14.94 25.78 15.65 2.60 -16.85 2.76 2.84 -5.62 3.00 1.46 11.43 1.45 -0.15 5.75 4.22 -2.62 -14.98 3.94 -84.47 2.30 -167.98 -14.80 -27.58 -174.39 0.00 -0.00 -54.95 22.86 21.16 9.54 92.73 -1.79 169.05 33.31 -47.47 -178.74 -0.00 -0.00 57.03 -21.12 -10.09 -28.52 10.83 -38.74 -10.02 5.65 49.94 -12.11 2.18 -41.34 7.11 0.00 -0.02 0.00 28.28 -66.76 31.02 -7.70 55.18 14.68 -1.38 -19.18 -5.89 -0.00 0.05 0.01 
-153.1625 87.3709 -211.8896 -15.14 26.02 15.62 2.60 -16.96 2.59 2.93 -5.54 2.75 1.47 11.60 1.33 -0.29 5.43 4.40 -2.65 -14.90 4.11 -84.43 1.78 -167.93 -14.86 -28.66 -173.98 0.00 -0.00 -54.90 22.93 20.94 9.66 92.77 -1.25 168.77 34.12 -47.61 -177.83 -0.00 -0.00 57.40 -20.47 -10.57 -28.21 10.84 -38.73 -9.88 5.64 49.89 -12.08 2.16 -41.52 7.08 0.00 0.05 -0.01 28.37 -67.15 30.71 -8.08 55.98 15.14 -1.31 -19.79 -5.62 -0.00 0.12 0.02 
-152.8569 87.2277 -211.5530 -15.20 26.21 15.47 2.45 -16.99 2.62 3.02 -5.46 2.81 1.74 11.69 1.34 -0.41 4.96 4.46 -2.84 -14.78 4.15 -84.31 1.74 -167.85 -14.99 -30.03 -173.74 0.00 -0.00 -54.84 23.37 21.01 10.22 92.82 -1.19 168.68 34.66 -47.66 -177.05 -0.00 -0.00 57.78 -19.81 -10.78 -28.12 10.81 -38.67 -9.67 5.64 49.91 -12.09 2.21 -41.65 7.17 0.00 0.06 -0.01 28.23 -67.43 30.29 -8.47 56.77 15.61 -1.18 -20.33 -5.21 -0.00 0.13 0.02 
-152.5405 87.0682 -211.2140 -15.34 26.51 15.51 2.36 -17.02 2.62 3.01 -5.51 2.82 1.82 11.66 1.34 -0.36 4.73 4.44 -3.04 -14.71 4.12 -84.28 1.70 -167.88 -15.14 -31.39 -173.37 0.00 -0.00 -54.75 23.88 20.68 10.25 93.03 -1.19 168.71 35.26 -47.65 -176.40 -0.00 -0.00 58.22 -19.13 -10.85 -28.10 10.68 -38.76 -9.65 5.66 49.95 -12.11 2.11 -41.71 7.03 0.00 -0.05 0.01 28.21 -67.91 30.11 -8.90 57.58 16.12 -1.14 -20.62 -5.06 -0.00 0.06 0.01 
-152.1902 86.9053 -210.8655 -15.45 26.72 15.70 2.47 -16.87 2.49 2.90 -5.56 2.65 1.51 11.49 1.28 -0.24 4.70 4.62 -2.93 -14.74 4.32 -84.48 1.39 -168.13 -15.23 -32.38 -172.71 0.00 -0.00 -54.67 23.82 20.13 10.09 93.09 -0.93 168.81 35.72 -47.61 -175.87 -0.00 -0.00 58.79 -18.64 -11.02 -27.77 10.34 -38.69 -9.87 5.66 49.97 -12.12 1.91 -41.89 6.73 0.00 -0.13 0.02 27.98 -68.37 29.88 -9.38 58.44 16.68 -1.14 -20.93 -5.06 -0.00 0.08 0.01 
-151.8110 86.7580 -210.4982 -15.52 26.97 15.89 2.21 -16.85 2.30 2.95 -5.61 2.44 1.72 11.41 1.16 -0.46 4.73 4.86 -2.87 -14.81 4.55 -84.44 1.20 -168.26 -15.03 -33.07 -172.02 0.00 -0.00 -54.57 23.66 20.06 10.16 93.20 -0.76 168.84 36.39 -47.76 -175.11 -0.00 -0.00 59.42 -18.50 -11.38 -27.50 9.87 -38.63 -10.12 5.66 49.96 -12.11 2.01 -42.28 6.90 0.00 0.10 -0.02 27.56 -68.87 29.52 -9.93 59.38 17.33 -1.08 -21.24 -4.88 -0.00 0.00 0.00 
-151.4688 86.5706 -210.1019 -15.65 27.35 15.96 2.12 -16.94 2.25 2.88 -5.71 2.40 1.72 11.40 1.13 -0.38 4.54 4.86 -2.89 -14.89 4.56 -84.27 1.16 -168.29 -14.77 -33.73 -171.42 0.00 -0.00 -54.45 23.35 20.21 10.49 93.38 -0.71 168.84 37.00 -47.94 -174.46 -0.00 -0.00 60.20 -18.55 -10.93 -27.10 9.68 -38.70 -10.14 5.66 49.95 -12.11 2.17 -42.46 7.15 0.00 0.16 -0.03 27.75 -69.49 29.93 -10.58 60.40 18.08 -1.02 -21.64 -4.69 -0.00 0.02 0.00 
-151.1445 86.4103 -209.6945 -15.93 27.50 15.96 1.89 -16.79 2.26 3.06 -5.71 2.43 2.11 11.24 1.13 -0.49 4.37 5.06 -2.77 -14.55 4.77 -83.90 1.23 -168.43 -14.36 -34.50 -170.77 0.00 -0.00 -54.43 23.03 20.17 10.95 93.48 -0.74 169.02 37.51 -48.16 -173.82 -0.00 -0.00 61.12 -18.73 -10.20 -26.25 9.92 -38.51 -10.00 5.64 49.90 -12.09 2.12 -42.53 7.07 0.00 0.12 -0.02 28.13 -69.87 30.27 -11.30 61.45 18.91 -0.92 -22.10 -4.43 -0.00 0.11 0.02 
-150.7764 86.2411 -209.2599 -16.11 27.61 15.92 1.96 -16.72 2.31 3.05 -5.61 2.50 2.06 11.27 1.16 -0.49 4.18 5.17 -2.51 -14.64 4.93 -83.92 1.25 -168.39 -14.38 -35.58 -170.24 0.00 -0.00 -54.43 23.08 19.95 11.34 93.61 -0.79 168.99 38.33 -48.15 -172.93 -0.00 -0.00 62.14 -18.88 -9.46 -25.62 9.94 -38.23 -9.91 5.62 49.84 -12.06 2.09 -42.48 7.02 0.00 0.06 -0.01 28.50 -70.18 30.82 -12.14 62.56 19.85 -0.85 -22.52 -4.24 -0.00 0.12 0.02 
-150.3830 86.0471 -208.8172 -16.21 27.99 15.92 1.95 -16.85 2.31 2.92 -5.67 2.50 1.96 11.33 1.17 -0.46 4.09 5.09 -2.52 -14.82 4.84 -83.91 1.33 -168.32 -14.18 -36.55 -169.41 0.00 -0.00 -54.47 23.17 19.21 11.82 93.54 -0.85 168.93 38.80 -48.00 -171.98 -0.00 -0.00 63.20 -18.94 -8.97 -25.64 9.66 -38.24 -9.88 5.62 49.84 -12.06 2.20 -42.28 7.17 0.00 -0.03 0.01 29.03 -70.71 31.70 -13.06 63.68 20.89 -0.82 -22.71 -4.16 -0.00 -0.03 -0.01 
-149.9923 85.8581 -208.3516 -16.12 28.23 15.77 1.78 -16.72 2.32 2.71 -5.66 2.56 1.94 11.22 1.19 -0.31 3.89 4.96 -2.62 -14.76 4.70 -83.72 1.44 -168.41 -13.79 -37.29 -168.44 0.00 -0.00 -54.61 23.02 18.60 12.66 93.56 -0.94 169.07 39.26 -47.91 -171.12 -0.00 -0.00 64.38 -19.25 -8.87 -25.32 9.32 -38.02 -9.81 5.60 49.79 -12.04 2.16 -42.21 7.12 0.00 -0.06 0.01 28.67 -71.00 31.67 -14.04 64.77 21.98 -0.68 -23.14 -3.81 -0.00 -0.07 -0.01 
-149.5616 85.6704 -207.8876 -16.09 28.44 15.71 1.81 -16.52 2.33 2.47 -5.65 2.60 1.67 11.06 1.23 -0.07 3.66 4.94 -2.52 -14.77 4.71 -83.57 1.44 -168.57 -13.39 -38.05 -167.54 0.00 -0.00 -54.78 22.60 18.39 13.37 93.50 -0.90 169.22 39.72 -47.79 -170.37 -0.00 -0.00 65.66 -19.44 -9.12 -24.88 9.00 -37.79 -9.83 5.58 49.73 -12.01 1.90 -42.27 6.73 0.00 0.01 -0.00 28.05 -71.35 31.39 -15.14 65.88 23.19 -0.52 -23.80 -3.40 -0.00 0.12 0.02 
-149.0977 85.4634 -207.4055 -16.02 28.75 15.71 1.41 -16.63 2.33 2.39 -5.55 2.66 2.02 11.22 1.23 -0.06 3.17 4.77 -2.67 -14.71 4.52 -83.25 1.67 -168.37 -13.11 -38.81 -167.02 0.00 -0.00 -54.91 22.18 17.96 13.68 93.55 -1.08 169.09 39.90 -47.05 -169.67 -0.00 -0.00 66.93 -18.82 -8.86 -24.13 8.55 -37.64 -9.93 5.58 49.71 -12.01 1.65 -42.38 6.35 0.00 0.06 -0.01 27.47 -71.81 31.34 -16.33 66.95 24.48 -0.38 -24.25 -3.09 -0.00 0.22 0.04 
-148.6228 85.2965 -206.8876 -15.89 28.81 15.54 1.16 -16.35 2.42 2.25 -5.46 2.84 2.19 11.03 1.30 -0.00 2.97 4.59 -2.70 -14.73 4.34 -83.14 2.06 -168.47 -12.71 -39.44 -166.02 0.00 -0.00 -55.10 22.25 17.81 13.73 93.46 -1.45 169.38 39.92 -46.64 -169.01 -0.00 -0.00 68.29 -18.34 -8.93 -23.74 8.25 -37.20 -9.89 5.55 49.64 -11.97 1.61 -42.25 6.29 0.00 -0.06 0.01 26.88 -71.85 31.28 -17.56 67.96 25.81 -0.25 -24.37 -2.79 -0.00 0.01 0.00 
-148.1727 85.1347 -206.3613 -15.83 28.95 15.46 0.99 -16.11 2.44 2.07 -5.42 2.91 2.18 10.85 1.34 -0.01 2.84 4.66 -2.45 -14.71 4.44 -83.12 2.26 -168.60 -12.42 -40.15 -165.07 0.00 -0.00 -55.28 22.15 17.64 14.22 93.38 -1.65 169.60 40.08 -46.73 -168.30 -0.00 -0.00 69.72 -18.78 -7.73 -23.38 8.01 -36.87 -9.90 5.52 49.53 -11.93 1.56 -42.23 6.21 0.00 -0.04 0.01 26.57 -71.93 31.71 -18.78 68.86 27.13 -0.21 -24.47 -2.68 -0.00 -0.11 -0.02 
-147.6827 84.8929 -205.7855 -15.74 29.40 15.40 0.81 -16.31 2.43 1.73 -5.39 2.94 2.08 11.05 1.35 0.26 2.23 4.68 -2.33 -14.40 4.49 -82.88 2.58 -168.34 -11.98 -40.60 -164.24 0.00 -0.00 -55.40 21.58 17.14 14.48 93.38 -1.92 169.43 40.29 -46.31 -167.49 -0.00 -0.00 71.17 -18.20 -7.54 -22.94 7.49 -36.79 -9.94 5.49 49.45 -11.89 1.40 -42.34 5.99 0.00 0.04 -0.01 26.34 -72.29 32.47 -20.06 69.72 28.50 -0.06 -24.82 -2.36 -0.00 -0.03 -0.01 
-147.1333 84.6579 -205.1949 -15.67 29.77 15.55 0.62 -16.47 2.34 1.46 -5.32 2.87 1.99 11.26 1.31 0.52 1.48 4.56 -2.44 -13.99 4.37 -82.81 2.81 -168.11 -11.52 -40.81 -163.30 0.00 -0.00 -55.56 20.98 16.89 14.52 93.34 -2.12 169.25 40.33 -45.63 -166.82 -0.00 -0.00 72.70 -17.58 -7.54 -22.61 6.84 -36.60 -10.25 5.46 49.34 -11.85 1.17 -42.34 5.63 0.00 -0.09 0.02 25.59 -72.69 32.75 -21.44 70.56 29.97 0.02 -25.04 -2.17 -0.00 -0.16 -0.03 
